<?xml version="1.0" encoding="UTF-8" standalone="no"?>
<svg
   sodipodi:docname="text-x-rust.svg"
   inkscape:version="1.1.1 (3bf5ae0d25, 2021-09-20)"
   id="svg8"
   version="1.1"
   viewBox="0 0 8.4666665 8.4666669"
   height="32"
   width="32"
   xmlns:inkscape="http://www.inkscape.org/namespaces/inkscape"
   xmlns:sodipodi="http://sodipodi.sourceforge.net/DTD/sodipodi-0.dtd"
   xmlns="http://www.w3.org/2000/svg"
   xmlns:svg="http://www.w3.org/2000/svg"
   xmlns:rdf="http://www.w3.org/1999/02/22-rdf-syntax-ns#"
   xmlns:cc="http://creativecommons.org/ns#"
   xmlns:dc="http://purl.org/dc/elements/1.1/">
  <defs
     id="defs2">
    <filter
       inkscape:collect="always"
       style="color-interpolation-filters:sRGB"
       id="filter33141"
       x="-0.081250001"
       width="1.1625"
       y="-0.069642859"
       height="1.1392857">
      <feGaussianBlur
         inkscape:collect="always"
         stdDeviation="0.21497395"
         id="feGaussianBlur33143" />
    </filter>
  </defs>
  <sodipodi:namedview
     inkscape:window-maximized="1"
     inkscape:window-y="0"
     inkscape:window-x="0"
     inkscape:window-height="992"
     inkscape:window-width="1920"
     units="px"
     showgrid="false"
     inkscape:document-rotation="0"
     inkscape:current-layer="layer1"
     inkscape:document-units="px"
     inkscape:cy="35.704121"
     inkscape:cx="8.6067476"
     inkscape:zoom="9.0045629"
     inkscape:pageshadow="2"
     inkscape:pageopacity="0.0"
     borderopacity="1.0"
     bordercolor="#666666"
     pagecolor="#ffffff"
     id="base"
     inkscape:pagecheckerboard="0" />
  <metadata
     id="metadata5">
    <rdf:RDF>
      <cc:Work
         rdf:about="">
        <dc:format>image/svg+xml</dc:format>
        <dc:type
           rdf:resource="http://purl.org/dc/dcmitype/StillImage" />
      </cc:Work>
    </rdf:RDF>
  </metadata>
  <g
     id="layer1"
     inkscape:groupmode="layer"
     inkscape:label="Capa 1">
    <path
       style="opacity:0.5;fill:#000000;fill-opacity:1;stroke:none;stroke-width:2.29353;filter:url(#filter33141)"
       d="M 1.0583334,0.5291668 V 7.9374999 H 7.4083333 V 2.1166666 l -1.5875,-1.5874998 z"
       id="path926-2"
       inkscape:connector-curvature="0" />
    <path
       style="opacity:1;fill:#f5f5f5;fill-opacity:1;stroke:none;stroke-width:2.29353"
       d="M 1.0583334,0.52916675 V 7.9374999 H 7.4083333 V 2.1166666 l -1.5875,-1.58749985 z"
       id="path926"
       inkscape:connector-curvature="0" />
    <path
       inkscape:connector-curvature="0"
       style="opacity:0.2;fill:#000000;fill-opacity:1;stroke:none;stroke-width:2.29353"
       d="M 5.8208333,0.52916675 V 2.1166669 h 1.5875 z"
       id="path926-1" />
    <path
       d="m 4.233333,3.3263022 c -0.791777,0 -1.4361972,0.6447241 -1.4361972,1.4361973 0,0.7914732 0.644724,1.4361973 1.4361972,1.4361973 0.7914733,0 1.4361974,-0.6447241 1.4361974,-1.4361973 0,-0.7914732 -0.6447241,-1.4361973 -1.4361974,-1.4361973 z m -0.00213,0.127608 a 0.09418683,0.09449067 0 0 1 0.091756,0.094491 0.0944907,0.0944907 0 0 1 -0.1889814,0 0.09449067,0.09449067 0 0 1 0.097225,-0.094491 z m 0.2163259,0.1555602 a 1.1627516,1.1627516 0 0 1 0.7960306,0.566944 L 5.1320587,4.4279843 c -0.019141,0.043448 6.086e-4,0.094491 0.043751,0.1139357 l 0.2145029,0.095098 a 1.1627516,1.1627516 0 0 1 0.00243,0.201742 h -0.1194 c -0.011849,0 -0.016711,0.0079 -0.016711,0.019445 v 0.054689 c 0,0.1288234 -0.072615,0.1570795 -0.1364189,0.1640674 C 5.0594474,5.0839478 4.9923009,5.0514407 4.9837938,5.0143736 4.9479421,4.8129353 4.8883916,4.7700954 4.7942048,4.6956575 4.9111788,4.6215232 5.0327102,4.5118412 5.0327102,4.3653959 5.0327102,4.2071013 4.9242435,4.1074455 4.8504131,4.0585292 4.7465033,3.9901677 4.6316561,3.9764954 4.6006656,3.9764954 H 3.3671219 A 1.1627516,1.1627516 0 0 1 4.0176187,3.6094705 l 0.1455338,0.152522 c 0.032813,0.034333 0.087199,0.035852 0.1215315,0.00273 z M 3.1046113,4.3088836 a 0.09449067,0.09449067 0 0 1 0.091756,0.094491 0.0944907,0.0944907 0 0 1 -0.1889814,0 0.09449067,0.09449067 0 0 1 0.097225,-0.094491 z m 2.2528882,0.00425 a 0.09449067,0.09449067 0 0 1 0.091756,0.094491 0.09449067,0.09449067 0 0 1 -0.1889813,0 0.09449067,0.09449067 0 0 1 0.097225,-0.094491 z M 3.2826547,4.3283261 H 3.4473298 V 5.070883 H 3.1149414 A 1.1627516,1.1627516 0 0 1 3.0772665,4.6269895 l 0.2035651,-0.090541 c 0.043448,-0.019445 0.063196,-0.070184 0.043751,-0.1136318 z m 0.6872601,0.0079 h 0.3922426 c 0.020356,0 0.1431032,0.023395 0.1431032,0.1154548 0,0.076261 -0.094187,0.1036055 -0.1716631,0.1036055 H 3.969611 Z m 0,0.5335228 h 0.3004864 c 0.027345,0 0.1467492,0.0079 0.1847277,0.1604215 0.011849,0.04679 0.038283,0.1993114 0.056208,0.2482278 0.017925,0.054689 0.090541,0.1640673 0.1680172,0.1640673 H 5.1697333 A 1.1627516,1.1627516 0 0 1 5.062178,5.5670382 l -0.1996154,-0.04284 c -0.046485,-0.010026 -0.092364,0.019748 -0.10239,0.066235 l -0.047398,0.221187 A 1.1627516,1.1627516 0 0 1 3.7432584,5.8070602 L 3.6958609,5.5858735 c -0.010026,-0.046486 -0.0556,-0.076261 -0.1020863,-0.066235 L 3.3984128,5.5615666 A 1.1627516,1.1627516 0 0 1 3.2975418,5.4424658 h 0.9500717 c 0.010634,0 0.017925,-0.00183 0.017925,-0.011849 V 5.0945823 c 0,-0.00972 -0.00729,-0.011849 -0.017925,-0.011849 H 3.9696104 Z M 3.5314903,5.6393493 a 0.09449067,0.09449067 0 0 1 0.091756,0.094491 0.09449067,0.09449067 0 0 1 -0.1889813,0 0.09449067,0.09449067 0 0 1 0.097225,-0.094491 z m 1.3991302,0.00425 a 0.09449067,0.09449067 0 0 1 0.091756,0.094491 0.0944907,0.0944907 0 0 1 -0.1889814,0 0.09449067,0.09449067 0 0 1 0.097225,-0.094491 z"
       id="path2"
       style="stroke-width:0.0303828" />
    <path
       d="M 5.5893197,4.7624995 A 1.3559866,1.3559866 0 0 1 4.233333,6.1184861 1.3559866,1.3559866 0 0 1 2.8773465,4.7624995 1.3559866,1.3559866 0 0 1 4.233333,3.406513 1.3559866,1.3559866 0 0 1 5.5893197,4.7624995 Z m -0.025521,-0.13095 0.2114646,0.13095 -0.2114646,0.1309501 0.1816894,0.1698401 -0.2327326,0.087199 0.1452299,0.202046 -0.2457972,0.040106 0.1033016,0.226656 -0.2488354,-0.00881 0.05712,0.2424551 -0.2424552,-0.05712 0.00881,0.2488356 L 4.8634742,5.9413538 4.8233685,6.1871511 4.6213225,6.041921 4.5341237,6.2746537 4.3642836,6.0929642 4.2333335,6.3044289 4.1023834,6.0929642 3.9325433,6.2746537 3.8453445,6.041921 3.6432985,6.1871511 3.6031928,5.9413538 3.3765368,6.0446555 3.3853474,5.7958199 3.1428922,5.8529399 3.2000122,5.6104848 2.9511766,5.6192962 3.0544783,5.3926402 2.808681,5.3525345 2.9539111,5.1504885 2.7211784,5.0632897 2.9028679,4.8934496 2.6914033,4.7624995 2.9028679,4.6315495 2.7211784,4.4617093 2.9539111,4.3745105 2.808681,4.1724646 3.0544783,4.1323589 2.9511766,3.9057028 l 0.2488356,0.00881 -0.05712,-0.2424552 0.2424552,0.05712 -0.00881,-0.2488356 0.226656,0.1033017 0.040106,-0.2457973 0.202046,0.1452301 0.087198,-0.2327312 0.1698401,0.1816895 0.1309501,-0.2114646 0.1309501,0.2114646 0.1698401,-0.1816895 0.087199,0.2327327 0.202046,-0.1452301 0.040106,0.2457973 0.226656,-0.1033017 -0.00881,0.2488356 0.2424552,-0.05712 -0.05712,0.2424552 0.2488354,-0.00881 -0.1033016,0.2266561 0.2457972,0.040106 -0.1452299,0.2020459 0.2327326,0.087199 z"
       fill-rule="evenodd"
       stroke="#000000"
       stroke-linecap="round"
       stroke-linejoin="round"
       stroke-width="0.0911486"
       id="path4" />
  </g>
</svg>
